
            <svg xmlns="http://www.w3.org/2000/svg" xmlns:cc="http://creativecommons.org/ns#" xmlns:rdf="http://www.w3.org/1999/02/22-rdf-syntax-ns#" version="1.1" width="700.7501220703125" height="234.00001525878906">
              <defs>
                <style type="text/css">svg{background-color:#fff}text,tspan{font:12px Arial}path{fill-opacity:0;stroke-width:2px;stroke:#000}circle{fill:#6b6659;stroke-width:2px;stroke:#000}.anchor text,.any-character text{fill:#fff}.anchor rect,.any-character rect{fill:#6b6659}.escape text,.charset-escape text,.literal text{fill:#000}.escape rect,.charset-escape rect{fill:#bada55}.literal rect{fill:#dae9e5}.charset .charset-box{fill:#cbcbba}.subexp .subexp-label tspan,.charset .charset-label tspan,.match-fragment .repeat-label tspan{font-size:10px}.repeat-label{cursor:help}.subexp .subexp-label tspan,.charset .charset-label tspan{dominant-baseline:text-after-edge}.subexp .subexp-box{stroke:#908c83;stroke-dasharray:6,2;stroke-width:2px;fill-opacity:0}.quote{fill:#908c83}
          </style>
              </defs>
              <metadata>
                <rdf:rdf>
                  <cc:license rdf:about="http://creativecommons.org/licenses/by/3.0/">
                    <cc:permits rdf:resource="http://creativecommons.org/ns#Reproduction"></cc:permits>
                    <cc:permits rdf:resource="http://creativecommons.org/ns#Distribution"></cc:permits>
                    <cc:requires rdf:resource="http://creativecommons.org/ns#Notice"></cc:requires>
                    <cc:requires rdf:resource="http://creativecommons.org/ns#Attribution"></cc:requires>
                    <cc:permits rdf:resource="http://creativecommons.org/ns#DerivativeWorks"></cc:permits>
                  </cc:license>
                </rdf:rdf>
              </metadata>
            <desc>Created with Snap</desc><g class="root" transform="matrix(1,0,0,1,15,10.9062)"><g class="regexp match" transform="matrix(1,0,0,1,10,0)"><path d="M70.6875,107.0938H90.6875M222.04690551757812,107.0938H247.0469M277.20315,107.0938H297.2032M372.46887077636717,107.0938H417.4688M534.0469707763672,107.0938H584.047"></path><g class="match-fragment" transform="matrix(1,0,0,1,0,95.0938)"><g class="label anchor"><rect width="70.6875" height="24"></rect><text x="0" y="0" transform="matrix(1,0,0,1,5,17)"><tspan>Start of line</tspan></text></g></g><g class="match-fragment" transform="matrix(1,0,0,1,80.6875,35.5938)"><path d="M10,71.5q-10,0 -10,10v50.5q0,10 10,10h131.35940551757812q10,0 10,-10v-50.5q0,-10 -10,-10M151.35940551757812,86.5l5,-5m-5,5l-5,-5"></path><g class="charset" transform="matrix(1,0,0,1,10,0)"><rect rx="3" ry="3" class="charset-box" transform="matrix(1,0,0,1,0,11)" width="131.3593978881836" height="121"></rect><text x="0" y="0" class="charset-label" transform="matrix(1,0,0,1,0,11)"><tspan>One of:</tspan></text><g transform="matrix(1,0,0,1,5,16)"><g class="charset-range" transform="matrix(1,0,0,1,28.0469,0)"><text x="0" y="0" transform="matrix(1,0,0,1,30.9844,16)">-</text><g class="literal" transform="matrix(1,0,0,1,0,0)"><g class="label"><rect width="25.984375" height="24" rx="3" ry="3"></rect><text x="0" y="0" transform="matrix(1,0,0,1,5,17)"><tspan class="quote">“</tspan><tspan>A</tspan><tspan class="quote">”</tspan></text></g></g><g class="literal" transform="matrix(1,0,0,1,39.9688,0)"><g class="label"><rect width="25.296875" height="24" rx="3" ry="3"></rect><text x="0" y="0" transform="matrix(1,0,0,1,5,17)"><tspan class="quote">“</tspan><tspan>Z</tspan><tspan class="quote">”</tspan></text></g></g></g><g class="charset-range" transform="matrix(1,0,0,1,29.3828,29)"><text x="0" y="0" transform="matrix(1,0,0,1,29.6406,16)">-</text><g class="literal" transform="matrix(1,0,0,1,0,0)"><g class="label"><rect width="24.640625" height="24" rx="3" ry="3"></rect><text x="0" y="0" transform="matrix(1,0,0,1,5,17)"><tspan class="quote">“</tspan><tspan>a</tspan><tspan class="quote">”</tspan></text></g></g><g class="literal" transform="matrix(1,0,0,1,38.625,0)"><g class="label"><rect width="23.96875" height="24" rx="3" ry="3"></rect><text x="0" y="0" transform="matrix(1,0,0,1,5,17)"><tspan class="quote">“</tspan><tspan>z</tspan><tspan class="quote">”</tspan></text></g></g></g><g class="charset-range" transform="matrix(1,0,0,1,29.0469,58)"><text x="0" y="0" transform="matrix(1,0,0,1,29.6406,16)">-</text><g class="literal" transform="matrix(1,0,0,1,0,0)"><g class="label"><rect width="24.640625" height="24" rx="3" ry="3"></rect><text x="0" y="0" transform="matrix(1,0,0,1,5,17)"><tspan class="quote">“</tspan><tspan>0</tspan><tspan class="quote">”</tspan></text></g></g><g class="literal" transform="matrix(1,0,0,1,38.625,0)"><g class="label"><rect width="24.640625" height="24" rx="3" ry="3"></rect><text x="0" y="0" transform="matrix(1,0,0,1,5,17)"><tspan class="quote">“</tspan><tspan>9</tspan><tspan class="quote">”</tspan></text></g></g></g><g class="charset-range" transform="matrix(1,0,0,1,0,87)"><text x="0" y="0" transform="matrix(1,0,0,1,58.6875,16)">-</text><g class="charset-escape" transform="matrix(1,0,0,1,0,0)"><g class="label"><rect width="53.6875" height="24" rx="3" ry="3"></rect><text x="0" y="0" transform="matrix(1,0,0,1,5,17)"><tspan>U+4E00</tspan></text></g></g><g class="charset-escape" transform="matrix(1,0,0,1,67.6719,0)"><g class="label"><rect width="53.6875" height="24" rx="3" ry="3"></rect><text x="0" y="0" transform="matrix(1,0,0,1,5,17)"><tspan>U+9FA5</tspan></text></g></g></g></g></g></g><g class="match-fragment literal" transform="matrix(1,0,0,1,247.0469,95.0938)"><g class="label"><rect width="30.15625" height="24" rx="3" ry="3"></rect><text x="0" y="0" transform="matrix(1,0,0,1,5,17)"><tspan class="quote">“</tspan><tspan>@</tspan><tspan class="quote">”</tspan></text></g></g><g class="match-fragment" transform="matrix(1,0,0,1,287.2032,21.0938)"><path d="M10,86q-10,0 -10,10v65q0,10 10,10h75.26567077636719q10,0 10,-10v-65q0,-10 -10,-10M95.26567077636719,101l5,-5m-5,5l-5,-5"></path><g class="charset" transform="matrix(1,0,0,1,10,0)"><rect rx="3" ry="3" class="charset-box" transform="matrix(1,0,0,1,0,11)" width="75.26567077636719" height="150"></rect><text x="0" y="0" class="charset-label" transform="matrix(1,0,0,1,0,11)"><tspan>One of:</tspan></text><g transform="matrix(1,0,0,1,5,16)"><g class="charset-range" transform="matrix(1,0,0,1,1.336,0)"><text x="0" y="0" transform="matrix(1,0,0,1,29.6406,16)">-</text><g class="literal" transform="matrix(1,0,0,1,0,0)"><g class="label"><rect width="24.640625" height="24" rx="3" ry="3"></rect><text x="0" y="0" transform="matrix(1,0,0,1,5,17)"><tspan class="quote">“</tspan><tspan>a</tspan><tspan class="quote">”</tspan></text></g></g><g class="literal" transform="matrix(1,0,0,1,38.625,0)"><g class="label"><rect width="23.96875" height="24" rx="3" ry="3"></rect><text x="0" y="0" transform="matrix(1,0,0,1,5,17)"><tspan class="quote">“</tspan><tspan>z</tspan><tspan class="quote">”</tspan></text></g></g></g><g class="charset-range" transform="matrix(1,0,0,1,0,29)"><text x="0" y="0" transform="matrix(1,0,0,1,30.9844,16)">-</text><g class="literal" transform="matrix(1,0,0,1,0,0)"><g class="label"><rect width="25.984375" height="24" rx="3" ry="3"></rect><text x="0" y="0" transform="matrix(1,0,0,1,5,17)"><tspan class="quote">“</tspan><tspan>A</tspan><tspan class="quote">”</tspan></text></g></g><g class="literal" transform="matrix(1,0,0,1,39.9688,0)"><g class="label"><rect width="25.296875" height="24" rx="3" ry="3"></rect><text x="0" y="0" transform="matrix(1,0,0,1,5,17)"><tspan class="quote">“</tspan><tspan>Z</tspan><tspan class="quote">”</tspan></text></g></g></g><g class="charset-range" transform="matrix(1,0,0,1,1,58)"><text x="0" y="0" transform="matrix(1,0,0,1,29.6406,16)">-</text><g class="literal" transform="matrix(1,0,0,1,0,0)"><g class="label"><rect width="24.640625" height="24" rx="3" ry="3"></rect><text x="0" y="0" transform="matrix(1,0,0,1,5,17)"><tspan class="quote">“</tspan><tspan>0</tspan><tspan class="quote">”</tspan></text></g></g><g class="literal" transform="matrix(1,0,0,1,38.625,0)"><g class="label"><rect width="24.640625" height="24" rx="3" ry="3"></rect><text x="0" y="0" transform="matrix(1,0,0,1,5,17)"><tspan class="quote">“</tspan><tspan>9</tspan><tspan class="quote">”</tspan></text></g></g></g><g class="literal" transform="matrix(1,0,0,1,20.3125,87)"><g class="label"><rect width="24.640625" height="24" rx="3" ry="3"></rect><text x="0" y="0" transform="matrix(1,0,0,1,5,17)"><tspan class="quote">“</tspan><tspan>_</tspan><tspan class="quote">”</tspan></text></g></g><g class="literal" transform="matrix(1,0,0,1,21.6485,116)"><g class="label"><rect width="21.96875" height="24" rx="3" ry="3"></rect><text x="0" y="0" transform="matrix(1,0,0,1,5,17)"><tspan class="quote">“</tspan><tspan>-</tspan><tspan class="quote">”</tspan></text></g></g></g></g></g><g class="match-fragment" transform="matrix(1,0,0,1,397.4688,0)"><path d="M10,107.0938q-10,0 -10,10v85.99999959106445q0,10 10,10h151.5781707763672q10,0 10,-10v-85.99999959106445q0,-10 -10,-10M171.5781707763672,122.0938l5,-5m-5,5l-5,-5"></path><g class="subexp" transform="matrix(1,0,0,1,10,0)"><rect rx="3" ry="3" class="subexp-box" transform="matrix(1,0,0,1,0,11.0938)" width="151.5781707763672" height="192"></rect><text x="0" y="0" class="subexp-label" transform="matrix(1,0,0,1,0,11.0938)"><tspan>group #1</tspan></text><g class="regexp match" transform="matrix(1,0,0,1,10,21.0938)"><path d="M21.3125,86H41.3125"></path><g class="match-fragment literal" transform="matrix(1,0,0,1,0,74)"><g class="label"><rect width="21.3125" height="24" rx="3" ry="3"></rect><text x="0" y="0" transform="matrix(1,0,0,1,5,17)"><tspan class="quote">“</tspan><tspan>.</tspan><tspan class="quote">”</tspan></text></g></g><g class="match-fragment" transform="matrix(1,0,0,1,31.3125,0)"><path d="M10,86q-10,0 -10,10v65q0,10 10,10h75.26567077636719q10,0 10,-10v-65q0,-10 -10,-10M95.26567077636719,101l5,-5m-5,5l-5,-5"></path><g class="charset" transform="matrix(1,0,0,1,10,0)"><rect rx="3" ry="3" class="charset-box" transform="matrix(1,0,0,1,0,11)" width="75.26567077636719" height="150"></rect><text x="0" y="0" class="charset-label" transform="matrix(1,0,0,1,0,11)"><tspan>One of:</tspan></text><g transform="matrix(1,0,0,1,5,16)"><g class="charset-range" transform="matrix(1,0,0,1,1.336,0)"><text x="0" y="0" transform="matrix(1,0,0,1,29.6406,16)">-</text><g class="literal" transform="matrix(1,0,0,1,0,0)"><g class="label"><rect width="24.640625" height="24" rx="3" ry="3"></rect><text x="0" y="0" transform="matrix(1,0,0,1,5,17)"><tspan class="quote">“</tspan><tspan>a</tspan><tspan class="quote">”</tspan></text></g></g><g class="literal" transform="matrix(1,0,0,1,38.625,0)"><g class="label"><rect width="23.96875" height="24" rx="3" ry="3"></rect><text x="0" y="0" transform="matrix(1,0,0,1,5,17)"><tspan class="quote">“</tspan><tspan>z</tspan><tspan class="quote">”</tspan></text></g></g></g><g class="charset-range" transform="matrix(1,0,0,1,0,29)"><text x="0" y="0" transform="matrix(1,0,0,1,30.9844,16)">-</text><g class="literal" transform="matrix(1,0,0,1,0,0)"><g class="label"><rect width="25.984375" height="24" rx="3" ry="3"></rect><text x="0" y="0" transform="matrix(1,0,0,1,5,17)"><tspan class="quote">“</tspan><tspan>A</tspan><tspan class="quote">”</tspan></text></g></g><g class="literal" transform="matrix(1,0,0,1,39.9688,0)"><g class="label"><rect width="25.296875" height="24" rx="3" ry="3"></rect><text x="0" y="0" transform="matrix(1,0,0,1,5,17)"><tspan class="quote">“</tspan><tspan>Z</tspan><tspan class="quote">”</tspan></text></g></g></g><g class="charset-range" transform="matrix(1,0,0,1,1,58)"><text x="0" y="0" transform="matrix(1,0,0,1,29.6406,16)">-</text><g class="literal" transform="matrix(1,0,0,1,0,0)"><g class="label"><rect width="24.640625" height="24" rx="3" ry="3"></rect><text x="0" y="0" transform="matrix(1,0,0,1,5,17)"><tspan class="quote">“</tspan><tspan>0</tspan><tspan class="quote">”</tspan></text></g></g><g class="literal" transform="matrix(1,0,0,1,38.625,0)"><g class="label"><rect width="24.640625" height="24" rx="3" ry="3"></rect><text x="0" y="0" transform="matrix(1,0,0,1,5,17)"><tspan class="quote">“</tspan><tspan>9</tspan><tspan class="quote">”</tspan></text></g></g></g><g class="literal" transform="matrix(1,0,0,1,20.3125,87)"><g class="label"><rect width="24.640625" height="24" rx="3" ry="3"></rect><text x="0" y="0" transform="matrix(1,0,0,1,5,17)"><tspan class="quote">“</tspan><tspan>_</tspan><tspan class="quote">”</tspan></text></g></g><g class="literal" transform="matrix(1,0,0,1,21.6485,116)"><g class="label"><rect width="21.96875" height="24" rx="3" ry="3"></rect><text x="0" y="0" transform="matrix(1,0,0,1,5,17)"><tspan class="quote">“</tspan><tspan>-</tspan><tspan class="quote">”</tspan></text></g></g></g></g></g></g></g></g><g class="match-fragment" transform="matrix(1,0,0,1,584.047,95.0938)"><g class="label anchor"><rect width="66.703125" height="24"></rect><text x="0" y="0" transform="matrix(1,0,0,1,5,17)"><tspan>End of line</tspan></text></g></g></g><path d="M10,107.0938H0M660.750125,107.0938H670.7501220703125"></path><circle cx="0" cy="107.0938" r="5"></circle><circle cx="670.7501220703125" cy="107.0938" r="5"></circle></g></svg>
          